{
	"asset":{
		"version":"2.0",
		"generator":"Created using the official Cinema 4D glTF Exporter 1.000x284978"
	},
	"scenes":[{
		"nodes":[0,
		1,
		2]
	}],
	"nodes":[{
		"name":"circle ballon.1",
		"translation":[0.0,
		0.0,
		-71.82788848876953],
		"rotation":[0.0,
		0.0,
		0.0,
		-1.0],
		"scale":[1.0,
		1.0,
		1.0],
		"mesh":0
	},
	{
		"name":"circle ballon",
		"translation":[0.0,
		0.0,
		-71.82788848876953],
		"rotation":[0.0,
		0.0,
		0.0,
		-1.0],
		"scale":[1.0,
		1.0,
		1.0],
		"mesh":1
	},
	{
		"name":"Connect",
		"translation":[-16.559473037719728,
		112.02074432373047,
		-6.459839820861816],
		"rotation":[0.0,
		-0.7071067690849304,
		0.0,
		-0.7071067690849304],
		"scale":[1.0,
		1.0,
		1.0],
		"children":[3]
	},
	{
		"name":"Connect",
		"mesh":2
	}],
	"meshes":[{
		"name":"circle ballon.1",
		"primitives":[{
			"attributes":{
				"POSITION":1,
				"NORMAL":2,
				"TEXCOORD_0":3
			},
			"indices":0,
			"material":0
		}]
	},
	{
		"name":"circle ballon",
		"primitives":[{
			"attributes":{
				"POSITION":5,
				"NORMAL":6,
				"TEXCOORD_0":7
			},
			"indices":4,
			"material":0
		}]
	},
	{
		"name":"Connect",
		"primitives":[{
			"attributes":{
				"POSITION":9,
				"NORMAL":10,
				"TEXCOORD_0":11
			},
			"indices":8,
			"material":1
		}]
	}],
	"accessors":[{
		"bufferView":0,
		"type":"SCALAR",
		"componentType":5123,
		"count":21072,
		"byteOffset":0,
		"min":[0],
		"max":[4966]
	},
	{
		"bufferView":1,
		"type":"VEC3",
		"componentType":5126,
		"count":4967,
		"byteOffset":0,
		"min":[-176.67172241210938,
		105.77941131591797,
		-67.01824951171875],
		"max":[175.01731872558595,
		459.2738952636719,
		71.67381286621094]
	},
	{
		"bufferView":1,
		"type":"VEC3",
		"componentType":5126,
		"count":4967,
		"byteOffset":12,
		"min":[-0.9995375275611877,
		-0.9980851411819458,
		-1.0],
		"max":[0.9999403953552246,
		0.999688982963562,
		1.0]
	},
	{
		"bufferView":1,
		"type":"VEC2",
		"componentType":5126,
		"count":4967,
		"byteOffset":24,
		"min":[0.0,
		0.0],
		"max":[1.0,
		1.0]
	},
	{
		"bufferView":2,
		"type":"SCALAR",
		"componentType":5123,
		"count":21072,
		"byteOffset":0,
		"min":[0],
		"max":[4966]
	},
	{
		"bufferView":3,
		"type":"VEC3",
		"componentType":5126,
		"count":4967,
		"byteOffset":0,
		"min":[-176.67172241210938,
		105.77941131591797,
		-67.01824951171875],
		"max":[175.01731872558595,
		459.2738952636719,
		71.67381286621094]
	},
	{
		"bufferView":3,
		"type":"VEC3",
		"componentType":5126,
		"count":4967,
		"byteOffset":12,
		"min":[-0.9995375275611877,
		-0.9980851411819458,
		-1.0],
		"max":[0.9999403953552246,
		0.999688982963562,
		1.0]
	},
	{
		"bufferView":3,
		"type":"VEC2",
		"componentType":5126,
		"count":4967,
		"byteOffset":24,
		"min":[0.0,
		0.0],
		"max":[1.0,
		1.0]
	},
	{
		"bufferView":4,
		"type":"SCALAR",
		"componentType":5123,
		"count":2880,
		"byteOffset":0,
		"min":[0],
		"max":[591]
	},
	{
		"bufferView":5,
		"type":"VEC3",
		"componentType":5126,
		"count":592,
		"byteOffset":0,
		"min":[-100.0,
		-41.03935241699219,
		-100.0],
		"max":[100.0,
		75.17039489746094,
		100.0]
	},
	{
		"bufferView":5,
		"type":"VEC3",
		"componentType":5126,
		"count":592,
		"byteOffset":12,
		"min":[-0.9434298872947693,
		-0.9995319843292236,
		-0.9434307217597961],
		"max":[0.9434307217597961,
		0.9986575245857239,
		0.9434307217597961]
	},
	{
		"bufferView":5,
		"type":"VEC2",
		"componentType":5126,
		"count":592,
		"byteOffset":24,
		"min":[0.0,
		0.0],
		"max":[1.0,
		0.5]
	}],
	"bufferViews":[{
		"buffer":0,
		"byteOffset":0,
		"byteLength":42144,
		"target":34963
	},
	{
		"buffer":0,
		"byteOffset":42144,
		"byteLength":158944,
		"target":34962,
		"byteStride":32
	},
	{
		"buffer":1,
		"byteOffset":0,
		"byteLength":42144,
		"target":34963
	},
	{
		"buffer":1,
		"byteOffset":42144,
		"byteLength":158944,
		"target":34962,
		"byteStride":32
	},
	{
		"buffer":2,
		"byteOffset":0,
		"byteLength":5760,
		"target":34963
	},
	{
		"buffer":2,
		"byteOffset":5760,
		"byteLength":18944,
		"target":34962,
		"byteStride":32
	}],
	"buffers":[{
		"uri":"data:application/octet-stream;base64,",
		"byteLength":201088
	},
	{
		"uri":"data:application/octet-stream;base64,",
		"byteLength":201088
	},
	{
		"uri":"data:application/octet-stream;base64,",
		"byteLength":24704
	}],
	"materials":[{
		"pbrMetallicRoughness":{
			"metallicFactor":1.0,
			"baseColorFactor":[0.9254901960784314,
			0.768627450980392,
			0.18823529411764709,
			1.0],
			"roughnessFactor":0.0
		},
		"name":"Mat.1",
		"emissiveFactor":[0.0,
		0.0,
		0.0],
		"alphaMode":"OPAQUE",
		"doubleSided":true
	},
	{
		"pbrMetallicRoughness":{
			"metallicFactor":0.66,
			"baseColorFactor":[0.8,
			0.8,
			0.8,
			1.0],
			"roughnessFactor":0.04
		},
		"name":"Mat",
		"emissiveFactor":[0.0,
		0.0,
		0.0],
		"alphaMode":"OPAQUE",
		"doubleSided":true
	}]
}